<svg version="1.1" xmlns="http://www.w3.org/2000/svg" viewBox="0 0 575.4522696753409 500.60064470143556" width="575.4522696753409" height="500.60064470143556" filter="invert(93%) hue-rotate(180deg)" class="excalidraw-svg">
  <!-- svg-source:excalidraw -->
  
  <defs>
    <style class="style-fonts">
      @font-face {
        font-family: "Virgil";
        src: url("https://excalidraw.com/Virgil.woff2");
      }
      @font-face {
        font-family: "Cascadia";
        src: url("https://excalidraw.com/Cascadia.woff2");
      }
      @font-face {
        font-family: "Assistant";
        src: url("https://excalidraw.com/Assistant-Regular.woff2");
      }
    </style>
    
  </defs>
  <rect x="0" y="0" width="575.4522696753409" height="500.60064470143556" fill="transparent"/><g stroke-linecap="round"><g transform="translate(286.0794429471162 11.483067669430739) rotate(0 -138.25998592774872 239.47332028061868)"><path d="M-0.43 -0.29 C-46.27 79.45, -229.46 398.12, -275.61 478.05 M1.54 -1.48 C-44.33 78.4, -230.01 399.34, -276.08 479.12" stroke="#1e1e1e" stroke-width="2" fill="none"/></g></g><mask/><g stroke-linecap="round"><g transform="translate(11.614599197116206 488.68228641943074) rotate(0 276.6640625 0)"><path d="M-0.33 0.29 C91.79 0.53, 461.41 1.16, 553.84 1.07 M1.69 -0.6 C93.61 -0.64, 461.11 -0.74, 553.16 -0.49" stroke="#1e1e1e" stroke-width="2" fill="none"/></g></g><mask/><g stroke-linecap="round"><g transform="translate(288.0481929471162 11.744786419430739) rotate(0 137.4445958020675 238.06102315494888)"><path d="M-1.11 -0.23 C44.72 79.14, 228.11 396.54, 274.07 476.04 M0.52 -1.4 C46.8 78.18, 230.8 398.17, 276.35 477.53" stroke="#1e1e1e" stroke-width="2" fill="none"/></g></g><mask/><g stroke-linecap="round"><g transform="translate(288.0333963008288 14.466599101193538) rotate(0 -66.62977889701236 235.7847871715203)"><path d="M0 0 C-3.73 6.47, -7.45 12.94, -14.89 25.86 M0 0 C-4.68 8.13, -9.36 16.26, -14.89 25.86 M-14.89 25.86 C-11.37 29.21, -7.85 32.56, -5.86 34.46 M-14.89 25.86 C-11.72 28.88, -8.55 31.9, -5.86 34.46 M-5.86 34.46 C-11 43.36, -16.15 52.27, -27.57 72.06 M-5.86 34.46 C-10.36 42.24, -14.86 50.03, -27.57 72.06 M-27.57 72.06 C-24.69 74.94, -21.82 77.81, -13.72 85.91 M-27.57 72.06 C-22.38 77.25, -17.2 82.43, -13.72 85.91 M-13.72 85.91 C-16.3 88.49, -18.88 91.08, -23.77 95.96 M-13.72 85.91 C-17.69 89.88, -21.66 93.86, -23.77 95.96 M-23.77 95.96 C-16.76 102.96, -9.76 109.97, -0.6 119.13 M-23.77 95.96 C-18.3 101.42, -12.84 106.89, -0.6 119.13 M-0.6 119.13 C-9.79 128.32, -18.99 137.52, -37.4 155.93 M-0.6 119.13 C-10.22 128.75, -19.84 138.37, -37.4 155.93 M-37.4 155.93 C-35.81 158.69, -34.21 161.45, -30.12 168.54 M-37.4 155.93 C-35.86 158.6, -34.32 161.27, -30.12 168.54 M-30.12 168.54 C-36 174.42, -41.89 180.3, -46.14 184.55 M-30.12 168.54 C-36.14 174.55, -42.15 180.56, -46.14 184.55 M-46.14 184.55 C-43.9 186.79, -41.66 189.03, -39.04 191.64 M-46.14 184.55 C-43.54 187.15, -40.94 189.74, -39.04 191.64 M-39.04 191.64 C-50.82 203.42, -62.59 215.19, -70.58 223.18 M-39.04 191.64 C-48.36 200.96, -57.68 210.28, -70.58 223.18 M-70.58 223.18 C-59.61 234.15, -48.64 245.11, -40.35 253.4 M-70.58 223.18 C-59.99 233.76, -49.4 244.35, -40.35 253.4 M-40.35 253.4 C-57.88 270.93, -75.42 288.47, -111.9 324.95 M-40.35 253.4 C-66.55 279.61, -92.76 305.81, -111.9 324.95 M-111.9 324.95 C-106.66 330.2, -101.41 335.45, -96.64 340.22 M-111.9 324.95 C-108.8 328.05, -105.7 331.16, -96.64 340.22 M-96.64 340.22 C-108.5 352.07, -120.35 363.93, -128.55 372.13 M-96.64 340.22 C-106.86 350.44, -117.09 360.67, -128.55 372.13 M-128.55 372.13 C-123.76 376.92, -118.96 381.72, -109.66 391.02 M-128.55 372.13 C-121.92 378.76, -115.28 385.4, -109.66 391.02 M-109.66 391.02 C-118.02 399.39, -126.39 407.76, -133.26 414.63 M-109.66 391.02 C-116.22 397.59, -122.79 404.16, -133.26 414.63 M-133.26 414.63 C-123.11 424.77, -112.97 434.92, -99.54 448.35 M-133.26 414.63 C-126.24 421.65, -119.22 428.66, -99.54 448.35 M-99.54 448.35 C-104.38 453.19, -109.22 458.03, -122.76 471.57 M-99.54 448.35 C-107.6 456.41, -115.66 464.47, -122.76 471.57" stroke="#e03131" stroke-width="2" fill="none"/></g></g><mask/><g stroke-linecap="round"><g transform="translate(288.23335141222753 133.9660880450159) rotate(0 75.31028632080479 177.2531902861567)"><path d="M0 0 C3.39 3.39, 6.79 6.79, 13.34 13.34 M0 0 C3.03 3.03, 6.06 6.06, 13.34 13.34 M13.34 13.34 C11.83 14.84, 10.33 16.34, 7.54 19.13 M13.34 13.34 C11.29 15.38, 9.25 17.42, 7.54 19.13 M7.54 19.13 C17.54 29.12, 27.53 39.12, 36.04 47.63 M7.54 19.13 C18.89 30.48, 30.24 41.83, 36.04 47.63 M36.04 47.63 C29.41 54.26, 22.77 60.9, 18.35 65.33 M36.04 47.63 C30.7 52.97, 25.36 58.31, 18.35 65.33 M18.35 65.33 C27.72 74.7, 37.09 84.07, 44.9 91.88 M18.35 65.33 C24.72 71.7, 31.09 78.07, 44.9 91.88 M44.9 91.88 C37.31 99.47, 29.72 107.06, 15.12 121.67 M44.9 91.88 C37.39 99.39, 29.88 106.9, 15.12 121.67 M15.12 121.67 C40.4 146.95, 65.68 172.23, 82.53 189.08 M15.12 121.67 C33.07 139.62, 51.03 157.58, 82.53 189.08 M82.53 189.08 C79.73 191.87, 76.93 194.67, 73.41 198.2 M82.53 189.08 C79.57 192.03, 76.62 194.99, 73.41 198.2 M73.41 198.2 C77.55 205.36, 81.68 212.53, 86.41 220.71 M73.41 198.2 C76.07 202.8, 78.72 207.41, 86.41 220.71 M86.41 220.71 C80.59 226.53, 74.77 232.35, 68.57 238.55 M86.41 220.71 C81.94 225.18, 77.46 229.65, 68.57 238.55 M68.57 238.55 C77.82 247.79, 87.06 257.04, 102.58 272.56 M68.57 238.55 C81.95 251.93, 95.34 265.32, 102.58 272.56 M102.58 272.56 C99.2 275.93, 95.83 279.31, 91.15 283.98 M102.58 272.56 C98.27 276.87, 93.95 281.18, 91.15 283.98 M91.15 283.98 C109.69 302.53, 128.24 321.07, 150.62 343.45 M91.15 283.98 C114.06 306.89, 136.96 329.79, 150.62 343.45 M150.62 343.45 C146.37 347.7, 142.12 351.96, 139.57 354.51 M150.62 343.45 C147.72 346.35, 144.82 349.26, 139.57 354.51" stroke="#e03131" stroke-width="2" fill="none"/></g></g><mask/><g stroke-linecap="round"><g transform="translate(258.1278292012813 182.7867070860015) rotate(0 5.069914469281073 5.069914469281073)"><path d="M0 0 C2.82 2.82, 5.64 5.64, 10.14 10.14 M0 0 C3.34 3.34, 6.67 6.67, 10.14 10.14" stroke="#1971c2" stroke-width="2" fill="none"/></g></g><mask/><g stroke-linecap="round"><g transform="translate(248.85271841990846 207.06195920668995) rotate(0 5.131304196464896 5.131304196464896)"><path d="M0 0 C2.19 2.19, 4.38 4.38, 10.26 10.26 M0 0 C2.14 2.14, 4.28 4.28, 10.26 10.26" stroke="#1971c2" stroke-width="2" fill="none"/></g></g><mask/><g stroke-linecap="round"><g transform="translate(248.466840134753 269.1638072258441) rotate(0 4.848034455316693 4.848034455316689)"><path d="M0 0 C3.3 3.3, 6.61 6.61, 9.7 9.7 M0 0 C2.21 2.21, 4.42 4.42, 9.7 9.7" stroke="#1971c2" stroke-width="2" fill="none"/></g></g><mask/><g stroke-linecap="round"><g transform="translate(223.56436823763912 294.5401200874437) rotate(0 5.377681939142974 5.377681939142974)"><path d="M0 0 C2.52 2.52, 5.04 5.04, 10.76 10.76 M0 0 C2.29 2.29, 4.57 4.57, 10.76 10.76" stroke="#1971c2" stroke-width="2" fill="none"/></g></g><mask/><g stroke-linecap="round"><g transform="translate(207.66935461750035 310.8072617467764) rotate(0 5.977201844032507 5.977201844032509)"><path d="M0 0 C3.71 3.71, 7.43 7.43, 11.95 11.95 M0 0 C4.73 4.73, 9.46 9.46, 11.95 11.95" stroke="#1971c2" stroke-width="2" fill="none"/></g></g><mask/><g stroke-linecap="round"><g transform="translate(189.40366040366206 327.7810678496645) rotate(0 5.844872414985062 5.8448724149850655)"><path d="M0 0 C3.38 3.38, 6.75 6.75, 11.69 11.69 M0 0 C3.06 3.06, 6.12 6.12, 11.69 11.69" stroke="#1971c2" stroke-width="2" fill="none"/></g></g><mask/><g stroke-linecap="round"><g transform="translate(192.6205114129892 355.53936840630587) rotate(0 5.377681939142974 5.377681939142974)"><path d="M0 0 C3.63 3.63, 7.26 7.26, 10.76 10.76 M0 0 C2.56 2.56, 5.12 5.12, 10.76 10.76" stroke="#1971c2" stroke-width="2" fill="none"/></g></g><mask/><g stroke-linecap="round"><g transform="translate(175.79172845105845 373.0620746728546) rotate(0 5.377681939142974 5.377681939142974)"><path d="M0 0 C3.3 3.3, 6.6 6.6, 10.76 10.76 M0 0 C3.09 3.09, 6.19 6.19, 10.76 10.76" stroke="#1971c2" stroke-width="2" fill="none"/></g></g><mask/><g stroke-linecap="round"><g transform="translate(179.7971013068317 406.5505025053398) rotate(0 5.377681939142974 5.377681939142974)"><path d="M0 0 C2.32 2.32, 4.64 4.64, 10.76 10.76 M0 0 C3.37 3.37, 6.75 6.75, 10.76 10.76" stroke="#1971c2" stroke-width="2" fill="none"/></g></g><mask/><g stroke-linecap="round"><g transform="translate(189.16278026929263 464.3244174795518) rotate(0 5.377681939142974 5.377681939142974)"><path d="M0 0 C3.02 3.02, 6.05 6.05, 10.76 10.76 M0 0 C3.74 3.74, 7.48 7.48, 10.76 10.76" stroke="#1971c2" stroke-width="2" fill="none"/></g></g><mask/><g stroke-linecap="round"><g transform="translate(233.00912738955856 224.81802040835925) rotate(0 5.131304196464896 5.131304196464896)"><path d="M0 0 C3.64 3.64, 7.27 7.27, 10.26 10.26 M0 0 C2.63 2.63, 5.26 5.26, 10.26 10.26" stroke="#1971c2" stroke-width="2" fill="none"/></g></g><mask/><g stroke-linecap="round"><g transform="translate(295.85135498498653 153.57522861937508) rotate(0 -5.5695568923473076 5.5695568923473004)"><path d="M0 0 C-3.88 3.88, -7.75 7.75, -11.14 11.14 M0 0 C-3.04 3.04, -6.08 6.08, -11.14 11.14" stroke="#1971c2" stroke-width="2" fill="none"/></g></g><mask/><g stroke-linecap="round"><g transform="translate(308.6974348172431 166.5409507848747) rotate(0 -5.5695568923473076 5.5695568923473004)"><path d="M0 0 C-3.54 3.54, -7.08 7.08, -11.14 11.14 M0 0 C-2.43 2.43, -4.86 4.86, -11.14 11.14" stroke="#1971c2" stroke-width="2" fill="none"/></g></g><mask/><g stroke-linecap="round"><g transform="translate(306.24992398288384 200.36363211279047) rotate(0 -5.5695568923473076 5.5695568923473004)"><path d="M0 0 C-2.98 2.98, -5.96 5.96, -11.14 11.14 M0 0 C-4.36 4.36, -8.72 8.72, -11.14 11.14" stroke="#1971c2" stroke-width="2" fill="none"/></g></g><mask/><g stroke-linecap="round"><g transform="translate(303.10724993640565 257.0410932883958) rotate(0 -5.5695568923473076 5.5695568923473004)"><path d="M0 0 C-2.85 2.85, -5.71 5.71, -11.14 11.14 M0 0 C-4.03 4.03, -8.07 8.07, -11.14 11.14" stroke="#1971c2" stroke-width="2" fill="none"/></g></g><mask/><g stroke-linecap="round"><g transform="translate(321.7570143303731 276.9832011612727) rotate(0 -5.5695568923473076 5.5695568923473004)"><path d="M0 0 C-4.43 4.43, -8.87 8.87, -11.14 11.14 M0 0 C-2.53 2.53, -5.07 5.07, -11.14 11.14" stroke="#1971c2" stroke-width="2" fill="none"/></g></g><mask/><g stroke-linecap="round"><g transform="translate(343.37824046635023 297.51526950496856) rotate(0 -5.5695568923473076 5.5695568923473004)"><path d="M0 0 C-4.23 4.23, -8.46 8.46, -11.14 11.14 M0 0 C-2.38 2.38, -4.76 4.76, -11.14 11.14" stroke="#1971c2" stroke-width="2" fill="none"/></g></g><mask/><g stroke-linecap="round"><g transform="translate(360.4231473557819 332.9995353057679) rotate(0 -5.5695568923473076 5.5695568923473004)"><path d="M0 0 C-3.18 3.18, -6.37 6.37, -11.14 11.14 M0 0 C-4.07 4.07, -8.14 8.14, -11.14 11.14" stroke="#1971c2" stroke-width="2" fill="none"/></g></g><mask/><g stroke-linecap="round"><g transform="translate(356.0696103849303 374.1585607402145) rotate(0 -5.5695568923473076 5.5695568923473004)"><path d="M0 0 C-3.22 3.22, -6.44 6.44, -11.14 11.14 M0 0 C-2.82 2.82, -5.63 5.63, -11.14 11.14" stroke="#1971c2" stroke-width="2" fill="none"/></g></g><mask/><g stroke-linecap="round"><g transform="translate(371.32297647399037 389.7110326623821) rotate(0 -5.5695568923473076 5.5695568923473004)"><path d="M0 0 C-4.07 4.07, -8.13 8.13, -11.14 11.14 M0 0 C-2.96 2.96, -5.92 5.92, -11.14 11.14" stroke="#1971c2" stroke-width="2" fill="none"/></g></g><mask/><g stroke-linecap="round"><g transform="translate(378.49945366972236 418.05904584500536) rotate(0 -5.5695568923473076 5.569556892347293)"><path d="M0 0 C-3.51 3.51, -7.01 7.01, -11.14 11.14 M0 0 C-4.42 4.42, -8.83 8.83, -11.14 11.14" stroke="#1971c2" stroke-width="2" fill="none"/></g></g><mask/><g stroke-linecap="round"><g transform="translate(397.5112392616923 438.45290666581707) rotate(0 -5.5695568923473076 5.569556892347293)"><path d="M0 0 C-3.1 3.1, -6.19 6.19, -11.14 11.14 M0 0 C-3.08 3.08, -6.15 6.15, -11.14 11.14" stroke="#1971c2" stroke-width="2" fill="none"/></g></g><mask/><g stroke-linecap="round"><g transform="translate(416.4662978853143 456.8262560140161) rotate(0 -5.5695568923473076 5.569556892347293)"><path d="M0 0 C-3.39 3.39, -6.79 6.79, -11.14 11.14 M0 0 C-4.08 4.08, -8.15 8.15, -11.14 11.14" stroke="#1971c2" stroke-width="2" fill="none"/></g></g><mask/></svg>